<?xml version="1.0" encoding="UTF-8"?>
<svg id="Layer_1" data-name="Layer 1" xmlns="http://www.w3.org/2000/svg" xmlns:xlink="http://www.w3.org/1999/xlink" viewBox="0 0 367.81 380.82">
  <defs>
    <style>
      .cls-1 {
        fill: url(#linear-gradient-3);
        filter: url(#drop-shadow-3);
      }

      .cls-1, .cls-2, .cls-3 {
        stroke-width: 0px;
      }

      .cls-2 {
        fill: url(#linear-gradient-2);
        filter: url(#drop-shadow-2);
      }

      .cls-3 {
        fill: url(#linear-gradient);
        filter: url(#drop-shadow-1);
      }
    </style>
    <linearGradient id="linear-gradient" x1="-96.02" y1="328.83" x2="-88.24" y2="550.5" gradientTransform="translate(-295.11 191.56) rotate(-89.84)" gradientUnits="userSpaceOnUse">
      <stop offset=".06" stop-color="#6dd5de"/>
      <stop offset=".31" stop-color="#919fc0"/>
      <stop offset=".72" stop-color="#cb4992"/>
      <stop offset=".91" stop-color="#e22780"/>
    </linearGradient>
    <filter id="drop-shadow-1" filterUnits="userSpaceOnUse">
      <feOffset dx="3" dy="6"/>
      <feGaussianBlur result="blur" stdDeviation="5"/>
      <feFlood flood-color="#000" flood-opacity=".3"/>
      <feComposite in2="blur" operator="in"/>
      <feComposite in="SourceGraphic"/>
    </filter>
    <linearGradient id="linear-gradient-2" x1="-113.86" y1="581.63" x2="59.29" y2="487.24" gradientTransform="translate(-295.11 191.56) rotate(-89.84)" gradientUnits="userSpaceOnUse">
      <stop offset=".06" stop-color="#70478b"/>
      <stop offset=".18" stop-color="#6f4c8e"/>
      <stop offset=".34" stop-color="#6f5d98"/>
      <stop offset=".51" stop-color="#6f78a9"/>
      <stop offset=".7" stop-color="#6f9fc1"/>
      <stop offset=".9" stop-color="#6fcfdf"/>
      <stop offset=".91" stop-color="#6fd0e0"/>
    </linearGradient>
    <filter id="drop-shadow-2" filterUnits="userSpaceOnUse">
      <feOffset dx="3" dy="6"/>
      <feGaussianBlur result="blur-2" stdDeviation="5"/>
      <feFlood flood-color="#000" flood-opacity=".3"/>
      <feComposite in2="blur-2" operator="in"/>
      <feComposite in="SourceGraphic"/>
    </filter>
    <linearGradient id="linear-gradient-3" x1="-27.24" y1="449.71" x2="130.82" y2="449.71" gradientTransform="translate(-295.11 191.56) rotate(-89.84)" gradientUnits="userSpaceOnUse">
      <stop offset=".08" stop-color="#70478b"/>
      <stop offset=".21" stop-color="#854089"/>
      <stop offset=".39" stop-color="#a93786"/>
      <stop offset=".57" stop-color="#e02780"/>
      <stop offset=".58" stop-color="#e42680"/>
    </linearGradient>
    <filter id="drop-shadow-3" filterUnits="userSpaceOnUse">
      <feOffset dx="3" dy="6"/>
      <feGaussianBlur result="blur-3" stdDeviation="5"/>
      <feFlood flood-color="#000" flood-opacity=".3"/>
      <feComposite in2="blur-3" operator="in"/>
      <feComposite in="SourceGraphic"/>
    </filter>
  </defs>
  <path class="cls-3" d="M217.66,250.65c12.89,22.41,25.77,44.81,38.66,67.22h-1.45s-60.43-.17-60.43-.17l-152.96-.43c-.92-.13-2.38-.47-3.83-1.48-.6-.42-3.11-2.17-3.47-5.32-.19-1.64.29-2.97.61-3.67l1.09-1.91c8.38-14.75,16.76-29.49,25.14-44.24.54-1.38,1.4-3.11,2.9-4.73,2.25-2.42,6.09-4.93,12.45-5.35,46.46.03,92.92.06,139.37.08.64,0,1.28,0,1.92,0Z"/>
  <path class="cls-2" d="M256.32,317.86l61.88.17s13.02-4.3,4.68-17.34l-104.46-180.15-38.23,64.95,76.13,132.36Z"/>
  <path class="cls-1" d="M218.67,121.06l-53.57,91.22s-5.23,7.79-15.85,7.76l-52.26-.15s-10.61-5.23-4.3-14.22c6.31-8.98,80.52-137.59,80.52-137.59,0,0,6.22-12.24,13.88-1.8,7.67,10.43,31.58,54.78,31.58,54.78Z"/>
</svg>